STARTFONT 2.1
COMMENT Created by fdbbdf
FONT helvetica14bi
SIZE 14 78 78
FONTBOUNDINGBOX 19 17 -1 -5
STARTPROPERTIES 4
Ownership "  Copyright (c) 1984 Adobe Systems, Inc.  allchars 75orig/HB16.bits  WIDTHERR -102 -126  GUIDELINES -4 0 9 12 DONE  TOTAL BITMAP BYTES 3876  "
FONT_ASCENT 12
FONT_DESCENT 5
DEFAULT_CHAR 32
ENDPROPERTIES
CHARS 95
STARTCHAR sp
ENCODING -1 32
SWIDTH 0 0
DWIDTH 5 0
BBX 1 1 0 -1
BITMAP
0000
ENDCHAR
STARTCHAR !
ENCODING -1 33
SWIDTH 0 0
DWIDTH 6 0
BBX 5 12 1 -1
BITMAP
3800
3800
3800
3000
3000
3000
6000
6000
6000
0000
e000
e000
ENDCHAR
STARTCHAR "
ENCODING -1 34
SWIDTH 0 0
DWIDTH 9 0
BBX 7 4 1 7
BITMAP
ee00
ee00
cc00
cc00
ENDCHAR
STARTCHAR #
ENCODING -1 35
SWIDTH 0 0
DWIDTH 11 0
BBX 10 12 1 -2
BITMAP
1980
1980
1980
7fc0
7fc0
3300
3300
ff80
ff80
6600
6600
6600
ENDCHAR
STARTCHAR $
ENCODING -1 36
SWIDTH 0 0
DWIDTH 12 0
BBX 10 15 1 -3
BITMAP
0600
1f80
3fc0
75c0
75c0
7c00
3e00
1f00
0b80
eb80
eb80
ff00
7e00
1000
1000
ENDCHAR
STARTCHAR %
ENCODING -1 37
SWIDTH 0 0
DWIDTH 15 0
BBX 13 12 1 -1
BITMAP
7830
fc70
cce0
cdc0
fd80
7b00
06f0
0ff8
1d98
3998
71f8
60f0
ENDCHAR
STARTCHAR &
ENCODING -1 38
SWIDTH 0 0
DWIDTH 12 0
BBX 10 12 1 -1
BITMAP
0f00
1f80
3980
3980
3b00
1e00
7ec0
efc0
c780
e780
ffc0
7dc0
ENDCHAR
STARTCHAR '
ENCODING -1 39
SWIDTH 0 0
DWIDTH 5 0
BBX 3 4 1 7
BITMAP
e000
e000
6000
c000
ENDCHAR
STARTCHAR (
ENCODING -1 40
SWIDTH 0 0
DWIDTH 7 0
BBX 6 16 1 -5
BITMAP
0c00
1800
3000
7000
6000
e000
c000
c000
c000
c000
c000
c000
c000
e000
6000
3000
ENDCHAR
STARTCHAR )
ENCODING -1 41
SWIDTH 0 0
DWIDTH 7 0
BBX 6 16 1 -5
BITMAP
3000
1800
1c00
0c00
0c00
0c00
0c00
0c00
0c00
1c00
1800
3800
3000
6000
6000
c000
ENDCHAR
STARTCHAR *
ENCODING -1 42
SWIDTH 0 0
DWIDTH 7 0
BBX 5 5 1 6
BITMAP
a800
f800
7000
f800
a800
ENDCHAR
STARTCHAR +
ENCODING -1 43
SWIDTH 0 0
DWIDTH 10 0
BBX 8 8 1 1
BITMAP
1800
1800
1800
ff00
ff00
1800
1800
1800
ENDCHAR
STARTCHAR ,
ENCODING -1 44
SWIDTH 0 0
DWIDTH 5 0
BBX 3 4 1 -3
BITMAP
e000
e000
6000
c000
ENDCHAR
STARTCHAR -
ENCODING -1 45
SWIDTH 0 0
DWIDTH 8 0
BBX 6 2 1 4
BITMAP
fc00
fc00
ENDCHAR
STARTCHAR .
ENCODING -1 46
SWIDTH 0 0
DWIDTH 4 0
BBX 3 2 1 -1
BITMAP
e000
e000
ENDCHAR
STARTCHAR /
ENCODING -1 47
SWIDTH 0 0
DWIDTH 8 0
BBX 7 12 1 -1
BITMAP
0600
0600
0c00
0c00
1800
1800
3000
3000
6000
6000
c000
c000
ENDCHAR
STARTCHAR 0
ENCODING -1 48
SWIDTH 0 0
DWIDTH 11 0
BBX 9 12 1 -1
BITMAP
1e00
3f00
7780
6380
e380
e380
e380
e380
e300
f700
7e00
3c00
ENDCHAR
STARTCHAR 1
ENCODING -1 49
SWIDTH 0 0
DWIDTH 8 0
BBX 6 12 1 -1
BITMAP
0c00
1c00
fc00
f800
3800
3800
3800
3000
7000
7000
7000
7000
ENDCHAR
STARTCHAR 2
ENCODING -1 50
SWIDTH 0 0
DWIDTH 11 0
BBX 9 12 1 -1
BITMAP
1f00
3f80
7380
7380
0380
0700
0e00
1c00
3800
7000
ff00
ff00
ENDCHAR
STARTCHAR 3
ENCODING -1 51
SWIDTH 0 0
DWIDTH 11 0
BBX 9 12 1 -1
BITMAP
1f00
3f80
7380
7380
0380
0f00
0f00
0380
e380
e780
7f00
3e00
ENDCHAR
STARTCHAR 4
ENCODING -1 52
SWIDTH 0 0
DWIDTH 11 0
BBX 9 12 1 -1
BITMAP
0780
0f80
1f80
3b80
3300
7700
e700
ff80
ff80
0e00
0e00
0e00
ENDCHAR
STARTCHAR 5
ENCODING -1 53
SWIDTH 0 0
DWIDTH 11 0
BBX 9 12 1 -1
BITMAP
1f80
3f80
3800
7000
7e00
7f00
0780
0380
0380
e780
ff00
7e00
ENDCHAR
STARTCHAR 6
ENCODING -1 54
SWIDTH 0 0
DWIDTH 11 0
BBX 9 12 1 -1
BITMAP
1f00
3f80
7380
7000
ee00
ff00
f780
e380
e380
f700
7f00
3e00
ENDCHAR
STARTCHAR 7
ENCODING -1 55
SWIDTH 0 0
DWIDTH 9 0
BBX 9 12 1 -1
BITMAP
7f80
7f80
0700
0e00
1c00
1800
3800
7000
6000
e000
e000
c000
ENDCHAR
STARTCHAR 8
ENCODING -1 56
SWIDTH 0 0
DWIDTH 12 0
BBX 10 12 1 -1
BITMAP
0f00
3f80
79c0
71c0
7380
3f80
7fc0
f1c0
e1c0
e380
7f00
3e00
ENDCHAR
STARTCHAR 9
ENCODING -1 57
SWIDTH 0 0
DWIDTH 11 0
BBX 9 12 1 -1
BITMAP
3e00
7f00
7780
e380
e380
f780
7f80
3b80
0700
e700
fe00
7c00
ENDCHAR
STARTCHAR :
ENCODING -1 58
SWIDTH 0 0
DWIDTH 5 0
BBX 4 8 1 -1
BITMAP
7000
7000
0000
0000
0000
0000
e000
e000
ENDCHAR
STARTCHAR ;
ENCODING -1 59
SWIDTH 0 0
DWIDTH 5 0
BBX 4 10 1 -3
BITMAP
7000
7000
0000
0000
0000
0000
e000
e000
6000
c000
ENDCHAR
STARTCHAR <
ENCODING -1 60
SWIDTH 0 0
DWIDTH 10 0
BBX 8 8 1 1
BITMAP
0300
0f00
3c00
e000
e000
3c00
0f00
0300
ENDCHAR
STARTCHAR =
ENCODING -1 61
SWIDTH 0 0
DWIDTH 9 0
BBX 7 5 1 2
BITMAP
fe00
fe00
0000
fe00
fe00
ENDCHAR
STARTCHAR >
ENCODING -1 62
SWIDTH 0 0
DWIDTH 10 0
BBX 8 8 1 1
BITMAP
c000
f000
3c00
0700
0700
3c00
f000
c000
ENDCHAR
STARTCHAR ?
ENCODING -1 63
SWIDTH 0 0
DWIDTH 10 0
BBX 8 12 1 -1
BITMAP
3e00
7f00
e700
e700
0700
0e00
1c00
3800
3000
0000
7000
7000
ENDCHAR
STARTCHAR @
ENCODING -1 64
SWIDTH 0 0
DWIDTH 19 0
BBX 17 14 1 -3
BITMAP
07f80000
1e0e0000
18030000
71f90000
63b98000
66398000
ce338000
cc730000
cc670000
cffe0000
477c0000
60000000
380e0000
0ff80000
ENDCHAR
STARTCHAR A
ENCODING -1 65
SWIDTH 0 0
DWIDTH 12 0
BBX 11 12 1 -1
BITMAP
03c0
07c0
07c0
0fc0
0fc0
1ce0
1ce0
38e0
7fe0
7fe0
f0e0
e0e0
ENDCHAR
STARTCHAR B
ENCODING -1 66
SWIDTH 0 0
DWIDTH 13 0
BBX 12 12 1 -1
BITMAP
3fe0
3ff0
3870
3870
30e0
7fc0
7fe0
70e0
70e0
e1e0
ffc0
ff80
ENDCHAR
STARTCHAR C
ENCODING -1 67
SWIDTH 0 0
DWIDTH 12 0
BBX 11 12 1 -1
BITMAP
0fc0
3fe0
78e0
70e0
f000
e000
e000
e000
e1c0
f3c0
7f80
3f00
ENDCHAR
STARTCHAR D
ENCODING -1 68
SWIDTH 0 0
DWIDTH 13 0
BBX 12 12 1 -1
BITMAP
3fc0
3fe0
38f0
3870
3870
7070
7070
7070
70e0
e1e0
ffc0
ff00
ENDCHAR
STARTCHAR E
ENCODING -1 69
SWIDTH 0 0
DWIDTH 12 0
BBX 11 12 1 -1
BITMAP
3fe0
3fe0
3800
3800
3800
7fc0
7fc0
7000
7000
f000
ff80
ff80
ENDCHAR
STARTCHAR F
ENCODING -1 70
SWIDTH 0 0
DWIDTH 12 0
BBX 11 12 1 -1
BITMAP
3fe0
3fe0
3800
3800
3800
7fc0
7fc0
7000
7000
e000
e000
e000
ENDCHAR
STARTCHAR G
ENCODING -1 71
SWIDTH 0 0
DWIDTH 13 0
BBX 12 12 1 -1
BITMAP
0fc0
3ff0
7870
7070
f000
e000
e3f0
e3f0
e0e0
f1e0
7fc0
3ec0
ENDCHAR
STARTCHAR H
ENCODING -1 72
SWIDTH 0 0
DWIDTH 13 0
BBX 12 12 1 -1
BITMAP
3870
3870
3870
3870
7fe0
7fe0
70e0
70e0
e0e0
e1c0
e1c0
e1c0
ENDCHAR
STARTCHAR I
ENCODING -1 73
SWIDTH 0 0
DWIDTH 6 0
BBX 5 12 1 -1
BITMAP
3800
3800
3800
3800
7000
7000
7000
7000
e000
e000
e000
e000
ENDCHAR
STARTCHAR J
ENCODING -1 74
SWIDTH 0 0
DWIDTH 10 0
BBX 9 12 1 -1
BITMAP
0380
0380
0380
0380
0380
0700
0700
e700
e700
ee00
fe00
7c00
ENDCHAR
STARTCHAR K
ENCODING -1 75
SWIDTH 0 0
DWIDTH 13 0
BBX 12 12 1 -1
BITMAP
3870
38f0
39e0
3bc0
7f80
7f00
7e00
7f00
f780
e3c0
e1e0
e0f0
ENDCHAR
STARTCHAR L
ENCODING -1 76
SWIDTH 0 0
DWIDTH 10 0
BBX 9 12 1 -1
BITMAP
3800
3800
3800
3800
3800
7000
7000
7000
7000
e000
ff80
ff80
ENDCHAR
STARTCHAR M
ENCODING -1 77
SWIDTH 0 0
DWIDTH 16 0
BBX 15 12 1 -1
BITMAP
3c1e
3c1e
3e3e
3e7e
366e
76dc
76dc
76dc
77dc
f7b8
e3b8
e338
ENDCHAR
STARTCHAR N
ENCODING -1 78
SWIDTH 0 0
DWIDTH 13 0
BBX 12 12 1 -1
BITMAP
3870
3870
3c70
3c70
3ee0
76e0
76e0
73e0
73e0
e3c0
e1c0
e1c0
ENDCHAR
STARTCHAR O
ENCODING -1 79
SWIDTH 0 0
DWIDTH 13 0
BBX 12 12 1 -1
BITMAP
0fc0
3fe0
78f0
7070
e070
e070
e070
e070
e0e0
f1e0
7fc0
3f00
ENDCHAR
STARTCHAR P
ENCODING -1 80
SWIDTH 0 0
DWIDTH 12 0
BBX 11 12 1 -1
BITMAP
3fc0
3fe0
38e0
38e0
70e0
71e0
7fc0
7f80
7000
e000
e000
e000
ENDCHAR
STARTCHAR Q
ENCODING -1 81
SWIDTH 0 0
DWIDTH 13 0
BBX 12 12 1 -1
BITMAP
0fc0
3fe0
78e0
7070
e070
e070
e070
eee0
e7e0
f3c0
7fe0
3ee0
ENDCHAR
STARTCHAR R
ENCODING -1 82
SWIDTH 0 0
DWIDTH 13 0
BBX 12 12 1 -1
BITMAP
3fe0
3ff0
3870
3870
38e0
7fc0
7fc0
70e0
f0e0
f0e0
e0e0
e0f0
ENDCHAR
STARTCHAR S
ENCODING -1 83
SWIDTH 0 0
DWIDTH 12 0
BBX 11 12 1 -1
BITMAP
0f80
3fc0
78e0
70e0
7800
3f00
1fc0
03c0
e1c0
e3c0
7f80
3f00
ENDCHAR
STARTCHAR T
ENCODING -1 84
SWIDTH 0 0
DWIDTH 11 0
BBX 10 12 1 -1
BITMAP
ffc0
ffc0
1c00
1c00
1c00
3800
3800
3800
3800
7000
7000
7000
ENDCHAR
STARTCHAR U
ENCODING -1 85
SWIDTH 0 0
DWIDTH 12 0
BBX 11 12 1 -1
BITMAP
70e0
70e0
70e0
70e0
70e0
e1c0
e1c0
e1c0
e1c0
e3c0
ff80
7f00
ENDCHAR
STARTCHAR V
ENCODING -1 86
SWIDTH 0 0
DWIDTH 12 0
BBX 11 12 1 -1
BITMAP
e0e0
e1e0
e1c0
e380
e380
7700
7600
7e00
7c00
7c00
3800
3800
ENDCHAR
STARTCHAR W
ENCODING -1 87
SWIDTH 0 0
DWIDTH 16 0
BBX 15 12 1 -1
BITMAP
e38e
e78e
e79c
e79c
edb8
edb8
f9f0
f9f0
f1e0
f1e0
e1c0
e1c0
ENDCHAR
STARTCHAR X
ENCODING -1 88
SWIDTH 0 0
DWIDTH 13 0
BBX 12 12 1 -1
BITMAP
3870
3cf0
1de0
1dc0
0f80
0f00
0f00
1f00
3b80
7b80
f1c0
e1c0
ENDCHAR
STARTCHAR Y
ENCODING -1 89
SWIDTH 0 0
DWIDTH 11 0
BBX 10 12 1 -1
BITMAP
e1c0
e3c0
7380
7700
7600
3e00
1c00
3800
3800
7800
7000
7000
ENDCHAR
STARTCHAR Z
ENCODING -1 90
SWIDTH 0 0
DWIDTH 13 0
BBX 12 12 1 -1
BITMAP
1ff0
1ff0
00f0
01e0
03c0
0780
0f00
1e00
3c00
7800
ffc0
ffc0
ENDCHAR
STARTCHAR [
ENCODING -1 91
SWIDTH 0 0
DWIDTH 7 0
BBX 6 16 1 -5
BITMAP
3c00
3c00
3000
3000
3000
3000
7000
6000
6000
6000
6000
e000
c000
c000
f000
f000
ENDCHAR
STARTCHAR \
ENCODING -1 92
SWIDTH 0 0
DWIDTH 4 0
BBX 2 12 1 -1
BITMAP
c000
c000
c000
c000
c000
c000
c000
c000
c000
c000
c000
c000
ENDCHAR
STARTCHAR ]
ENCODING -1 93
SWIDTH 0 0
DWIDTH 7 0
BBX 6 16 1 -5
BITMAP
3c00
3c00
0c00
0c00
1c00
1c00
1800
1800
1800
3800
3800
3000
3000
3000
f000
f000
ENDCHAR
STARTCHAR ^
ENCODING -1 94
SWIDTH 0 0
DWIDTH 10 0
BBX 8 7 1 4
BITMAP
0e00
1e00
1e00
3f00
7700
6300
e300
ENDCHAR
STARTCHAR _
ENCODING -1 95
SWIDTH 0 0
DWIDTH 9 0
BBX 10 2 -1 -5
BITMAP
ffc0
ffc0
ENDCHAR
STARTCHAR `
ENCODING -1 96
SWIDTH 0 0
DWIDTH 5 0
BBX 3 4 1 7
BITMAP
6000
c000
e000
e000
ENDCHAR
STARTCHAR a
ENCODING -1 97
SWIDTH 0 0
DWIDTH 10 0
BBX 9 9 1 -1
BITMAP
1f00
3f80
0380
1f80
7f00
f300
e700
ff00
7f00
ENDCHAR
STARTCHAR b
ENCODING -1 98
SWIDTH 0 0
DWIDTH 10 0
BBX 9 12 1 -1
BITMAP
3800
3800
3800
7f00
7f80
7180
7180
e380
e380
f780
ff00
ee00
ENDCHAR
STARTCHAR c
ENCODING -1 99
SWIDTH 0 0
DWIDTH 10 0
BBX 9 9 1 -1
BITMAP
1f00
3f80
7380
7000
e000
e180
f380
7f00
3e00
ENDCHAR
STARTCHAR d
ENCODING -1 100
SWIDTH 0 0
DWIDTH 10 0
BBX 10 12 1 -1
BITMAP
01c0
01c0
01c0
1d80
7f80
7380
e380
e380
e300
e700
ff00
7700
ENDCHAR
STARTCHAR e
ENCODING -1 101
SWIDTH 0 0
DWIDTH 10 0
BBX 9 9 1 -1
BITMAP
1f00
3f80
7180
7f80
ff80
e000
e300
7f00
3c00
ENDCHAR
STARTCHAR f
ENCODING -1 102
SWIDTH 0 0
DWIDTH 7 0
BBX 6 12 1 -1
BITMAP
1c00
3c00
3000
fc00
fc00
7000
7000
7000
e000
e000
e000
e000
ENDCHAR
STARTCHAR g
ENCODING -1 103
SWIDTH 0 0
DWIDTH 10 0
BBX 10 13 0 -5
BITMAP
1ec0
3fc0
79c0
71c0
7180
7380
7380
7f80
3f00
0700
ef00
fe00
7c00
ENDCHAR
STARTCHAR h
ENCODING -1 104
SWIDTH 0 0
DWIDTH 11 0
BBX 10 12 1 -1
BITMAP
3800
3800
3800
7b80
7fc0
71c0
71c0
73c0
e380
e380
e380
e380
ENDCHAR
STARTCHAR i
ENCODING -1 105
SWIDTH 0 0
DWIDTH 5 0
BBX 5 12 1 -1
BITMAP
3800
3800
0000
7000
7000
7000
7000
e000
e000
e000
e000
e000
ENDCHAR
STARTCHAR j
ENCODING -1 106
SWIDTH 0 0
DWIDTH 6 0
BBX 7 16 0 -5
BITMAP
0e00
0e00
0000
1c00
1c00
1c00
1c00
3800
3800
3800
3800
3000
7000
e000
e000
c000
ENDCHAR
STARTCHAR k
ENCODING -1 107
SWIDTH 0 0
DWIDTH 10 0
BBX 9 12 1 -1
BITMAP
3800
3800
3800
7380
7780
7e00
7c00
7e00
fe00
ee00
e700
e700
ENDCHAR
STARTCHAR l
ENCODING -1 108
SWIDTH 0 0
DWIDTH 6 0
BBX 5 12 1 -1
BITMAP
3800
3800
3800
3800
7000
7000
7000
7000
e000
e000
e000
e000
ENDCHAR
STARTCHAR m
ENCODING -1 109
SWIDTH 0 0
DWIDTH 15 0
BBX 14 9 1 -1
BITMAP
6f78
7ffc
739c
739c
739c
e738
e738
e738
e738
ENDCHAR
STARTCHAR n
ENCODING -1 110
SWIDTH 0 0
DWIDTH 11 0
BBX 10 9 1 -1
BITMAP
7780
7fc0
79c0
71c0
71c0
e380
e380
e380
e380
ENDCHAR
STARTCHAR o
ENCODING -1 111
SWIDTH 0 0
DWIDTH 9 0
BBX 8 9 1 -1
BITMAP
3e00
7f00
f700
e300
e700
c700
ef00
fe00
7c00
ENDCHAR
STARTCHAR p
ENCODING -1 112
SWIDTH 0 0
DWIDTH 11 0
BBX 10 13 1 -5
BITMAP
3b80
3fc0
39c0
71c0
71c0
71c0
7b80
7f80
ef00
e000
e000
e000
e000
ENDCHAR
STARTCHAR q
ENCODING -1 113
SWIDTH 0 0
DWIDTH 10 0
BBX 9 13 1 -5
BITMAP
3f80
7f80
f380
e380
e300
e700
e700
ff00
7f00
0700
0e00
0e00
0e00
ENDCHAR
STARTCHAR r
ENCODING -1 114
SWIDTH 0 0
DWIDTH 7 0
BBX 7 9 1 -1
BITMAP
6e00
7e00
7800
7000
7000
e000
e000
e000
e000
ENDCHAR
STARTCHAR s
ENCODING -1 115
SWIDTH 0 0
DWIDTH 10 0
BBX 9 9 1 -1
BITMAP
1f00
3f80
7380
7c00
3e00
0f00
e700
fe00
7c00
ENDCHAR
STARTCHAR t
ENCODING -1 116
SWIDTH 0 0
DWIDTH 6 0
BBX 6 11 1 -1
BITMAP
3000
3000
fc00
fc00
7000
7000
7000
e000
e000
f000
7000
ENDCHAR
STARTCHAR u
ENCODING -1 117
SWIDTH 0 0
DWIDTH 11 0
BBX 10 9 1 -1
BITMAP
71c0
71c0
71c0
71c0
e380
e380
e780
ff80
7b80
ENDCHAR
STARTCHAR v
ENCODING -1 118
SWIDTH 0 0
DWIDTH 10 0
BBX 9 9 1 -1
BITMAP
e380
e380
e700
e700
ee00
7e00
7c00
7800
7800
ENDCHAR
STARTCHAR w
ENCODING -1 119
SWIDTH 0 0
DWIDTH 13 0
BBX 12 9 1 -1
BITMAP
e770
ef70
ef70
ef60
fbe0
7bc0
73c0
7380
7380
ENDCHAR
STARTCHAR x
ENCODING -1 120
SWIDTH 0 0
DWIDTH 10 0
BBX 9 9 1 -1
BITMAP
7380
7b80
3f00
3e00
1c00
3e00
7e00
f700
e700
ENDCHAR
STARTCHAR y
ENCODING -1 121
SWIDTH 0 0
DWIDTH 9 0
BBX 10 13 0 -5
BITMAP
71c0
71c0
7380
7380
7700
3700
3e00
3c00
3800
3800
7000
f000
e000
ENDCHAR
STARTCHAR z
ENCODING -1 122
SWIDTH 0 0
DWIDTH 10 0
BBX 9 9 1 -1
BITMAP
7f80
7f80
0700
0e00
1c00
3800
7000
ff00
ff00
ENDCHAR
STARTCHAR {
ENCODING -1 123
SWIDTH 0 0
DWIDTH 6 0
BBX 4 16 1 -5
BITMAP
3000
7000
6000
6000
6000
6000
6000
e000
e000
6000
6000
6000
6000
6000
7000
3000
ENDCHAR
STARTCHAR |
ENCODING -1 124
SWIDTH 0 0
DWIDTH 6 0
BBX 5 16 1 -5
BITMAP
1800
1800
1800
3000
3000
3000
3000
3000
6000
6000
6000
6000
6000
c000
c000
c000
ENDCHAR
STARTCHAR }
ENCODING -1 125
SWIDTH 0 0
DWIDTH 6 0
BBX 4 16 1 -5
BITMAP
c000
e000
6000
6000
6000
6000
6000
7000
7000
6000
6000
6000
6000
6000
e000
c000
ENDCHAR
STARTCHAR ~
ENCODING -1 126
SWIDTH 0 0
DWIDTH 10 0
BBX 8 2 2 2
BITMAP
7b00
de00
ENDCHAR
ENDFONT
